<?xml version="1.0" encoding="utf-8"?>
<!-- Generator: Adobe Illustrator 22.1.0, SVG Export Plug-In . SVG Version: 6.00 Build 0)  -->
<svg version="1.1" id="Layer_1" xmlns="http://www.w3.org/2000/svg" xmlns:xlink="http://www.w3.org/1999/xlink" x="0px" y="0px"
	 viewBox="0 0 200 200" style="enable-background:new 0 0 200 200;" xml:space="preserve">
<style type="text/css">
	.st0{fill:#FFF;}
</style>
<g>
	<path class="st0" d="M176.1,190H153v4h24.7c4.5,0,8.6-1.8,11.5-4.8c0.7-0.7,1.4-1.5,2-2.4c0.3-0.4,0.6-0.9,0.8-1.3
		c0.5-0.9,0.9-1.9,1.2-2.9c0.4-1.2,0.6-2.4,0.7-3.6c0-0.4,0-0.8,0-1.3v0V154h-4v22.1C190,183.8,183.8,190,176.1,190z"/>
	<path class="st0" d="M24.9,11H48V7H23.3c-2.3,0-4.4,0.5-6.4,1.3c-1,0.4-1.9,0.9-2.8,1.5c-0.4,0.3-0.9,0.6-1.3,0.9
		c-0.8,0.7-1.5,1.4-2.2,2.2c-1,1.2-1.8,2.6-2.4,4c-0.4,1-0.7,2-1,3.1C7.1,21.1,7,22.2,7,23.3V49h4V24.9C11,17.2,17.2,11,24.9,11z"/>
	<path class="st0" d="M11,176.1V154H7v23.7v0c0,0.4,0,0.8,0,1.3c0.1,1.2,0.3,2.4,0.7,3.6c0.3,1,0.7,2,1.2,2.9
		c0.3,0.5,0.5,0.9,0.8,1.3c0.6,0.9,1.3,1.7,2,2.4c3,3,7,4.8,11.5,4.8H48v-4H24.9C17.2,190,11,183.8,11,176.1z"/>
	<path class="st0" d="M190,24.9V49h4V23.3c0-1.1-0.1-2.2-0.3-3.3c-0.2-1.1-0.5-2.1-1-3.1c-0.6-1.5-1.4-2.8-2.4-4
		c-0.7-0.8-1.4-1.5-2.2-2.2c-0.4-0.3-0.8-0.6-1.3-0.9c-0.9-0.6-1.8-1.1-2.8-1.5c-2-0.8-4.1-1.3-6.4-1.3H153v4h23.1
		C183.8,11,190,17.2,190,24.9z"/>
</g>
</svg>
